<mxfile host="app.diagrams.net" agent="Mozilla/5.0 (Windows NT 10.0; Win64; x64) AppleWebKit/537.36 (KHTML, like Gecko) Chrome/131.0.0.0 Safari/537.36" version="26.0.6">
  <diagram name="Page-1" id="eUllrwKb2ne6iIKgqR0f">
    <mxGraphModel dx="1194" dy="690" grid="1" gridSize="10" guides="1" tooltips="1" connect="1" arrows="1" fold="1" page="1" pageScale="1" pageWidth="850" pageHeight="1100" math="0" shadow="0">
      <root>
        <mxCell id="0" />
        <mxCell id="1" parent="0" />
        <mxCell id="Ba46Ynqtanpx5RTaV4O8-1" value="Flowchart 1" style="text;html=1;align=center;verticalAlign=middle;whiteSpace=wrap;rounded=0;" vertex="1" parent="1">
          <mxGeometry x="40" y="30" width="260" height="30" as="geometry" />
        </mxCell>
        <mxCell id="Ba46Ynqtanpx5RTaV4O8-4" value="" style="edgeStyle=orthogonalEdgeStyle;rounded=0;orthogonalLoop=1;jettySize=auto;html=1;" edge="1" parent="1" source="Ba46Ynqtanpx5RTaV4O8-2" target="Ba46Ynqtanpx5RTaV4O8-3">
          <mxGeometry relative="1" as="geometry" />
        </mxCell>
        <mxCell id="Ba46Ynqtanpx5RTaV4O8-2" value="Start" style="ellipse;whiteSpace=wrap;html=1;fillColor=#d5e8d4;strokeColor=#82b366;" vertex="1" parent="1">
          <mxGeometry x="390" y="20" width="120" height="80" as="geometry" />
        </mxCell>
        <mxCell id="Ba46Ynqtanpx5RTaV4O8-6" value="" style="edgeStyle=orthogonalEdgeStyle;rounded=0;orthogonalLoop=1;jettySize=auto;html=1;" edge="1" parent="1" source="Ba46Ynqtanpx5RTaV4O8-3" target="Ba46Ynqtanpx5RTaV4O8-5">
          <mxGeometry relative="1" as="geometry" />
        </mxCell>
        <mxCell id="Ba46Ynqtanpx5RTaV4O8-3" value="create const filepath&amp;nbsp;" style="whiteSpace=wrap;html=1;fillColor=#f5f5f5;strokeColor=#666666;fontColor=#333333;" vertex="1" parent="1">
          <mxGeometry x="390" y="130" width="120" height="60" as="geometry" />
        </mxCell>
        <mxCell id="Ba46Ynqtanpx5RTaV4O8-8" value="" style="edgeStyle=orthogonalEdgeStyle;rounded=0;orthogonalLoop=1;jettySize=auto;html=1;" edge="1" parent="1" source="Ba46Ynqtanpx5RTaV4O8-5" target="Ba46Ynqtanpx5RTaV4O8-7">
          <mxGeometry relative="1" as="geometry" />
        </mxCell>
        <mxCell id="Ba46Ynqtanpx5RTaV4O8-5" value="create file path for sales report&amp;nbsp;" style="whiteSpace=wrap;html=1;fillColor=#f5f5f5;strokeColor=#666666;fontColor=#333333;" vertex="1" parent="1">
          <mxGeometry x="390" y="230" width="120" height="60" as="geometry" />
        </mxCell>
        <mxCell id="Ba46Ynqtanpx5RTaV4O8-10" value="" style="edgeStyle=orthogonalEdgeStyle;rounded=0;orthogonalLoop=1;jettySize=auto;html=1;" edge="1" parent="1" source="Ba46Ynqtanpx5RTaV4O8-7" target="Ba46Ynqtanpx5RTaV4O8-9">
          <mxGeometry relative="1" as="geometry" />
        </mxCell>
        <mxCell id="Ba46Ynqtanpx5RTaV4O8-7" value="create arrays and size them&amp;nbsp;" style="whiteSpace=wrap;html=1;fillColor=#f5f5f5;strokeColor=#666666;fontColor=#333333;" vertex="1" parent="1">
          <mxGeometry x="390" y="330" width="120" height="60" as="geometry" />
        </mxCell>
        <mxCell id="Ba46Ynqtanpx5RTaV4O8-12" value="" style="edgeStyle=orthogonalEdgeStyle;rounded=0;orthogonalLoop=1;jettySize=auto;html=1;" edge="1" parent="1" source="Ba46Ynqtanpx5RTaV4O8-9" target="Ba46Ynqtanpx5RTaV4O8-11">
          <mxGeometry relative="1" as="geometry" />
        </mxCell>
        <mxCell id="Ba46Ynqtanpx5RTaV4O8-9" value="create arrays where all departments are stored" style="whiteSpace=wrap;html=1;fillColor=#f5f5f5;strokeColor=#666666;fontColor=#333333;" vertex="1" parent="1">
          <mxGeometry x="390" y="420" width="120" height="60" as="geometry" />
        </mxCell>
        <mxCell id="Ba46Ynqtanpx5RTaV4O8-14" value="" style="edgeStyle=orthogonalEdgeStyle;rounded=0;orthogonalLoop=1;jettySize=auto;html=1;" edge="1" parent="1" source="Ba46Ynqtanpx5RTaV4O8-11" target="Ba46Ynqtanpx5RTaV4O8-13">
          <mxGeometry relative="1" as="geometry" />
        </mxCell>
        <mxCell id="Ba46Ynqtanpx5RTaV4O8-11" value="create method that PopulatesTheDataArray" style="whiteSpace=wrap;html=1;fillColor=#f5f5f5;strokeColor=#666666;fontColor=#333333;" vertex="1" parent="1">
          <mxGeometry x="365" y="510" width="170" height="60" as="geometry" />
        </mxCell>
        <mxCell id="Ba46Ynqtanpx5RTaV4O8-16" value="" style="edgeStyle=orthogonalEdgeStyle;rounded=0;orthogonalLoop=1;jettySize=auto;html=1;" edge="1" parent="1" source="Ba46Ynqtanpx5RTaV4O8-13" target="Ba46Ynqtanpx5RTaV4O8-15">
          <mxGeometry relative="1" as="geometry" />
        </mxCell>
        <mxCell id="Ba46Ynqtanpx5RTaV4O8-13" value="Loop through all data lines from CSV file" style="whiteSpace=wrap;html=1;fillColor=#f5f5f5;strokeColor=#666666;fontColor=#333333;" vertex="1" parent="1">
          <mxGeometry x="390" y="600" width="120" height="60" as="geometry" />
        </mxCell>
        <mxCell id="Ba46Ynqtanpx5RTaV4O8-18" value="" style="edgeStyle=orthogonalEdgeStyle;rounded=0;orthogonalLoop=1;jettySize=auto;html=1;" edge="1" parent="1" source="Ba46Ynqtanpx5RTaV4O8-15" target="Ba46Ynqtanpx5RTaV4O8-17">
          <mxGeometry relative="1" as="geometry" />
        </mxCell>
        <mxCell id="Ba46Ynqtanpx5RTaV4O8-15" value="Split into data cells" style="whiteSpace=wrap;html=1;fillColor=#f5f5f5;strokeColor=#666666;fontColor=#333333;" vertex="1" parent="1">
          <mxGeometry x="390" y="680" width="120" height="60" as="geometry" />
        </mxCell>
        <mxCell id="Ba46Ynqtanpx5RTaV4O8-20" value="" style="edgeStyle=orthogonalEdgeStyle;rounded=0;orthogonalLoop=1;jettySize=auto;html=1;" edge="1" parent="1" source="Ba46Ynqtanpx5RTaV4O8-17" target="Ba46Ynqtanpx5RTaV4O8-19">
          <mxGeometry relative="1" as="geometry" />
        </mxCell>
        <mxCell id="Ba46Ynqtanpx5RTaV4O8-17" value="keep track of current person, current department and current total" style="whiteSpace=wrap;html=1;fillColor=#f5f5f5;strokeColor=#666666;fontColor=#333333;" vertex="1" parent="1">
          <mxGeometry x="390" y="770" width="120" height="60" as="geometry" />
        </mxCell>
        <mxCell id="Ba46Ynqtanpx5RTaV4O8-22" value="" style="edgeStyle=orthogonalEdgeStyle;rounded=0;orthogonalLoop=1;jettySize=auto;html=1;" edge="1" parent="1" source="Ba46Ynqtanpx5RTaV4O8-19" target="Ba46Ynqtanpx5RTaV4O8-21">
          <mxGeometry relative="1" as="geometry" />
        </mxCell>
        <mxCell id="Ba46Ynqtanpx5RTaV4O8-19" value="create a loop inside a loop that sums up total hours worked&amp;nbsp;" style="whiteSpace=wrap;html=1;fillColor=#f5f5f5;strokeColor=#666666;fontColor=#333333;" vertex="1" parent="1">
          <mxGeometry x="390" y="860" width="120" height="60" as="geometry" />
        </mxCell>
        <mxCell id="Ba46Ynqtanpx5RTaV4O8-23" style="edgeStyle=orthogonalEdgeStyle;rounded=0;orthogonalLoop=1;jettySize=auto;html=1;" edge="1" parent="1" source="Ba46Ynqtanpx5RTaV4O8-21">
          <mxGeometry relative="1" as="geometry">
            <mxPoint x="450" y="850" as="targetPoint" />
            <Array as="points">
              <mxPoint x="351" y="1030" />
            </Array>
          </mxGeometry>
        </mxCell>
        <mxCell id="Ba46Ynqtanpx5RTaV4O8-24" value="Yes" style="edgeLabel;html=1;align=center;verticalAlign=middle;resizable=0;points=[];" vertex="1" connectable="0" parent="Ba46Ynqtanpx5RTaV4O8-23">
          <mxGeometry x="-0.3846" y="4" relative="1" as="geometry">
            <mxPoint as="offset" />
          </mxGeometry>
        </mxCell>
        <mxCell id="Ba46Ynqtanpx5RTaV4O8-26" value="" style="edgeStyle=orthogonalEdgeStyle;rounded=0;orthogonalLoop=1;jettySize=auto;html=1;" edge="1" parent="1" source="Ba46Ynqtanpx5RTaV4O8-21" target="Ba46Ynqtanpx5RTaV4O8-25">
          <mxGeometry relative="1" as="geometry" />
        </mxCell>
        <mxCell id="Ba46Ynqtanpx5RTaV4O8-21" value="More cells" style="rhombus;whiteSpace=wrap;html=1;fillColor=#f5f5f5;strokeColor=#666666;fontColor=#333333;" vertex="1" parent="1">
          <mxGeometry x="410" y="990" width="80" height="80" as="geometry" />
        </mxCell>
        <mxCell id="Ba46Ynqtanpx5RTaV4O8-25" value="Check which department (call function check which department) which compares the indexes&amp;nbsp;" style="whiteSpace=wrap;html=1;fillColor=#f5f5f5;strokeColor=#666666;fontColor=#333333;" vertex="1" parent="1">
          <mxGeometry x="550" y="960" width="160" height="100" as="geometry" />
        </mxCell>
      </root>
    </mxGraphModel>
  </diagram>
</mxfile>
